# xmcd
#
# Track frame offsets:
#	150
#	13909
#	23436
#	35682
#	45520
#	55766
#	66611
#	76150
#	86344
#	95420
#	108387
#	121164
#	131466
#	143876
#	154545
#	166220
#
# Disc length: 2378 seconds
#
# Revision: 1
# Processed by: cddbd v1.5.2PL0 Copyright (c) Steve Scherf et al.
# Submitted via: audiograbber 1.83.01
#
DISCID=c3094810
DTITLE=The Golden Gate Quartet - The Golden Gate Quartet
DYEAR=1900
DGENRE=Blues
TTITLE0=Swing down Chariot
TTITLE1=My heart is an open Book
TTITLE2=Down by the Riverside
TTITLE3=Primrose lane
TTITLE4=Joshua fit the battle of Jerico
TTITLE5=Alabama Bound
TTITLE6=Blind Barnabus
TTITLE7=Every time i´feel the spirit
TTITLE8=Ezeqziel saw the wheel
TTITLE9=Judgment day
TTITLE10=Mister Blue
TTITLE11=Oh! Why
TTITLE12=Steel away and pray
TTITLE13=Lula
TTITLE14=St. Louis Blues
TTITLE15=When the Saints go marching in
EXTD=
EXTT0=
EXTT1=
EXTT2=
EXTT3=
EXTT4=
EXTT5=
EXTT6=
EXTT7=
EXTT8=
EXTT9=
EXTT10=
EXTT11=
EXTT12=
EXTT13=
EXTT14=
EXTT15=
PLAYORDER=
